<?xml version="1.0" standalone="no"?><!DOCTYPE svg PUBLIC "-//W3C//DTD SVG 1.1//EN" "http://www.w3.org/Graphics/SVG/1.1/DTD/svg11.dtd"><svg t="1756281596749" class="icon" viewBox="0 0 1024 1024" version="1.1" xmlns="http://www.w3.org/2000/svg" p-id="821" xmlns:xlink="http://www.w3.org/1999/xlink" width="200" height="200"><path d="M527.8 487.7l-15.3 16.6c-6.2-3.5-13.3-5.7-21-5.7-5.4 0-10.5 1.1-15.3 3L416.1 413c-0.1-0.2-0.4-0.3-0.5-0.5 6.7-6.5 10.9-15.6 10.9-25.6 0-19.8-16.1-35.8-35.8-35.8-19.8 0-35.8 16.1-35.8 35.8 0 7.1 2.2 13.8 5.8 19.3L291.8 475c-6-4.4-13.2-7.1-21.2-7.1-19.8 0-35.8 16.1-35.8 35.8 0 19.8 16.1 35.8 35.8 35.8 19.8 0 35.8-16.1 35.8-35.8 0-4.7-1-9.2-2.6-13.3l71.4-71.4c4.7 2.3 9.9 3.6 15.4 3.6 2.9 0 5.7-0.4 8.4-1.1 0.3 0.8 0.5 1.6 1 2.3l60.1 88.5c-7 7.6-11.4 17.7-11.4 28.9 0 23.6 19.2 42.8 42.8 42.8 23.6 0 42.8-19.2 42.8-42.8 0-8.9-2.7-17.1-7.4-24l15.2-16.5-14.3-13z m-257.2 32.5c-9 0-16.4-7.3-16.4-16.4 0-9 7.3-16.4 16.4-16.4s16.4 7.3 16.4 16.4c0 9-7.4 16.4-16.4 16.4z m120.1-116.9c-9 0-16.4-7.3-16.4-16.4 0-9 7.3-16.4 16.4-16.4 9 0 16.4 7.3 16.4 16.4-0.1 9-7.4 16.4-16.4 16.4zM664 302.5c-25.5 0-46.3 20.8-46.3 46.3 0 8.4 2.4 16.2 6.4 23l-55.3 59.9 21.5 19.8 55.5-60.2c5.6 2.4 11.8 3.8 18.2 3.8 25.5 0 46.3-20.8 46.3-46.3 0.1-25.6-20.7-46.3-46.3-46.3z m0 63.4c-9.4 0-17.1-7.7-17.1-17.1 0-9.4 7.7-17.1 17.1-17.1 9.4 0 17.1 7.7 17.1 17.1 0.1 9.4-7.6 17.1-17.1 17.1z" fill="#13227a" p-id="822"></path><path d="M854.8 578.5l-67.3-97.6c35.3-33 57.6-79.9 57.6-132.1 0-99.9-81-180.9-180.9-180.9s-180.9 81-180.9 180.9 81 180.9 180.9 180.9c26.8 0 52.2-6 75-16.4l67.8 98.2c8.8 12.7 26.4 15.9 39.1 7.2l1.6-1.1c12.6-8.8 15.8-26.4 7.1-39.1zM664 494.3c-80.4 0-145.5-65.2-145.5-145.5S583.7 203.2 664 203.2s145.5 65.2 145.5 145.5S744.4 494.3 664 494.3z" fill="#13227a" p-id="823"></path><path d="M716.6 649.1c0 10.9-8.9 19.7-19.7 19.7H237.3c-10.9 0-19.7-8.9-19.7-19.7V265.8c0-10.9 8.9-19.7 19.7-19.7h221.4c5.5-11.3 11.9-22.2 19.1-32.4H220.4c-23 0-41.8 18.8-41.8 41.8v412.4c0 23 18.8 41.8 41.8 41.8h216.9v51.8H319.2c-12.7 0-23.1 10.4-23.1 23.1v1.6c0 12.7 10.4 23.1 23.1 23.1h295.7c12.7 0 23.1-10.4 23.1-23.1v-1.6c0-12.7-10.4-23.1-23.1-23.1H496.8v-51.8h216.9c23 0 41.8-18.8 41.8-41.8v-84.7c-12.5 4.2-25.5 7.5-38.9 9.6v56.3z" fill="#13227a" p-id="824"></path></svg>